<mxfile host="app.diagrams.net" agent="Mozilla/5.0 (Macintosh; Intel Mac OS X 10_15_7) AppleWebKit/537.36 (KHTML, like Gecko) Chrome/133.0.0.0 Safari/537.36" version="26.0.16">
  <diagram name="Page-1" id="2SLMWaHyEjNRVhrS3lMv">
    <mxGraphModel>
      <root>
        <mxCell id="0" />
        <mxCell id="1" parent="0" />
        <mxCell id="2" value="Food Delivery System" style="whiteSpace=wrap;strokeWidth=2;verticalAlign=top;" vertex="1" parent="1">
          <mxGeometry x="8" y="8" width="1334" height="1002" as="geometry" />
        </mxCell>
        <mxCell id="3" value="Notification Service" style="whiteSpace=wrap;strokeWidth=2;verticalAlign=top;" vertex="1" parent="2">
          <mxGeometry x="957" y="43" width="310" height="462" as="geometry" />
        </mxCell>
        <mxCell id="4" value="Send Notification" style="whiteSpace=wrap;strokeWidth=2;" vertex="1" parent="3">
          <mxGeometry x="71" y="58" width="184" height="54" as="geometry" />
        </mxCell>
        <mxCell id="5" value="Format Notification" style="whiteSpace=wrap;strokeWidth=2;" vertex="1" parent="3">
          <mxGeometry x="63" y="212" width="201" height="54" as="geometry" />
        </mxCell>
        <mxCell id="6" value="Send Notification to User" style="whiteSpace=wrap;strokeWidth=2;" vertex="1" parent="3">
          <mxGeometry x="43" y="366" width="240" height="54" as="geometry" />
        </mxCell>
        <mxCell id="7" value="" style="curved=1;startArrow=none;endArrow=block;exitX=0.5;exitY=1;entryX=0.5;entryY=0;" edge="1" parent="3" source="4" target="5">
          <mxGeometry relative="1" as="geometry">
            <Array as="points" />
          </mxGeometry>
        </mxCell>
        <mxCell id="8" value="" style="curved=1;startArrow=none;endArrow=block;exitX=0.5;exitY=1;entryX=0.5;entryY=0;" edge="1" parent="3" source="5" target="6">
          <mxGeometry relative="1" as="geometry">
            <Array as="points" />
          </mxGeometry>
        </mxCell>
        <mxCell id="9" value="Login" style="whiteSpace=wrap;strokeWidth=2;" vertex="1" parent="2">
          <mxGeometry x="123" y="247" width="98" height="54" as="geometry" />
        </mxCell>
        <mxCell id="10" value="Validate User" style="whiteSpace=wrap;strokeWidth=2;" vertex="1" parent="2">
          <mxGeometry x="381" y="237" width="155" height="54" as="geometry" />
        </mxCell>
        <mxCell id="11" value="Generate Token" style="whiteSpace=wrap;strokeWidth=2;" vertex="1" parent="2">
          <mxGeometry x="645" y="237" width="173" height="54" as="geometry" />
        </mxCell>
        <mxCell id="12" value="Create Order" style="whiteSpace=wrap;strokeWidth=2;" vertex="1" parent="2">
          <mxGeometry x="382" y="575" width="154" height="54" as="geometry" />
        </mxCell>
        <mxCell id="13" value="Validate Order" style="whiteSpace=wrap;strokeWidth=2;" vertex="1" parent="2">
          <mxGeometry x="649" y="575" width="164" height="54" as="geometry" />
        </mxCell>
        <mxCell id="14" value="Update Order Status" style="whiteSpace=wrap;strokeWidth=2;" vertex="1" parent="2">
          <mxGeometry x="1009" y="575" width="206" height="54" as="geometry" />
        </mxCell>
        <mxCell id="15" value="Get Menu" style="whiteSpace=wrap;strokeWidth=2;" vertex="1" parent="2">
          <mxGeometry x="108" y="719" width="128" height="54" as="geometry" />
        </mxCell>
        <mxCell id="16" value="Filter Menu" style="whiteSpace=wrap;strokeWidth=2;" vertex="1" parent="2">
          <mxGeometry x="388" y="729" width="141" height="54" as="geometry" />
        </mxCell>
        <mxCell id="17" value="Add Item to Cart" style="whiteSpace=wrap;strokeWidth=2;" vertex="1" parent="2">
          <mxGeometry x="641" y="729" width="180" height="54" as="geometry" />
        </mxCell>
        <mxCell id="18" value="Process Payment" style="whiteSpace=wrap;strokeWidth=2;" vertex="1" parent="2">
          <mxGeometry x="83" y="879" width="179" height="54" as="geometry" />
        </mxCell>
        <mxCell id="19" value="Verify Payment" style="whiteSpace=wrap;strokeWidth=2;" vertex="1" parent="2">
          <mxGeometry x="374" y="889" width="168" height="54" as="geometry" />
        </mxCell>
        <mxCell id="20" value="Update Payment Status" style="whiteSpace=wrap;strokeWidth=2;" vertex="1" parent="2">
          <mxGeometry x="618" y="889" width="227" height="54" as="geometry" />
        </mxCell>
        <mxCell id="21" value="Send Payment Acknowledgement" style="whiteSpace=wrap;strokeWidth=2;" vertex="1" parent="2">
          <mxGeometry x="982" y="877" width="260" height="78" as="geometry" />
        </mxCell>
        <mxCell id="22" value="Payment Service" style="whiteSpace=wrap;strokeWidth=2;" vertex="1" parent="2">
          <mxGeometry x="46" y="838" width="1259" height="152" as="geometry" />
        </mxCell>
        <mxCell id="23" value="Menu Service" style="whiteSpace=wrap;strokeWidth=2;" vertex="1" parent="2">
          <mxGeometry x="46" y="684" width="836" height="134" as="geometry" />
        </mxCell>
        <mxCell id="24" value="Order Service" style="whiteSpace=wrap;strokeWidth=2;" vertex="1" parent="2">
          <mxGeometry x="337" y="540" width="967" height="124" as="geometry" />
        </mxCell>
        <mxCell id="25" value="Authentication Service" style="whiteSpace=wrap;strokeWidth=2;" vertex="1" parent="2">
          <mxGeometry x="46" y="202" width="836" height="134" as="geometry" />
        </mxCell>
        <mxCell id="26" value="" style="curved=1;startArrow=none;endArrow=block;exitX=1.01;exitY=0.43;entryX=0;entryY=0.5;" edge="1" parent="2" source="9" target="10">
          <mxGeometry relative="1" as="geometry">
            <Array as="points">
              <mxPoint x="299" y="264" />
            </Array>
          </mxGeometry>
        </mxCell>
        <mxCell id="27" value="" style="curved=1;startArrow=none;endArrow=block;exitX=1;exitY=0.5;entryX=0;entryY=0.5;" edge="1" parent="2" source="10" target="11">
          <mxGeometry relative="1" as="geometry">
            <Array as="points" />
          </mxGeometry>
        </mxCell>
        <mxCell id="28" value="" style="curved=1;startArrow=none;endArrow=block;exitX=1;exitY=0.5;entryX=0;entryY=0.5;" edge="1" parent="2" source="12" target="13">
          <mxGeometry relative="1" as="geometry">
            <Array as="points" />
          </mxGeometry>
        </mxCell>
        <mxCell id="29" value="" style="curved=1;startArrow=none;endArrow=block;exitX=1;exitY=0.5;entryX=0;entryY=0.5;" edge="1" parent="2" source="13" target="14">
          <mxGeometry relative="1" as="geometry">
            <Array as="points" />
          </mxGeometry>
        </mxCell>
        <mxCell id="30" value="" style="curved=1;startArrow=none;endArrow=block;exitX=1;exitY=0.59;entryX=0;entryY=0.5;" edge="1" parent="2" source="15" target="16">
          <mxGeometry relative="1" as="geometry">
            <Array as="points">
              <mxPoint x="299" y="756" />
            </Array>
          </mxGeometry>
        </mxCell>
        <mxCell id="31" value="" style="curved=1;startArrow=none;endArrow=block;exitX=1;exitY=0.5;entryX=0;entryY=0.5;" edge="1" parent="2" source="16" target="17">
          <mxGeometry relative="1" as="geometry">
            <Array as="points" />
          </mxGeometry>
        </mxCell>
        <mxCell id="32" value="" style="curved=1;startArrow=none;endArrow=block;exitX=1;exitY=0.63;entryX=0;entryY=0.5;" edge="1" parent="2" source="18" target="19">
          <mxGeometry relative="1" as="geometry">
            <Array as="points">
              <mxPoint x="299" y="916" />
            </Array>
          </mxGeometry>
        </mxCell>
        <mxCell id="33" value="" style="curved=1;startArrow=none;endArrow=block;exitX=1;exitY=0.5;entryX=0;entryY=0.5;" edge="1" parent="2" source="19" target="20">
          <mxGeometry relative="1" as="geometry">
            <Array as="points" />
          </mxGeometry>
        </mxCell>
        <mxCell id="34" value="" style="curved=1;startArrow=none;endArrow=block;exitX=1;exitY=0.5;entryX=0;entryY=0.5;" edge="1" parent="2" source="20" target="21">
          <mxGeometry relative="1" as="geometry">
            <Array as="points" />
          </mxGeometry>
        </mxCell>
        <mxCell id="35" value="" style="curved=1;startArrow=none;endArrow=block;exitX=1.01;exitY=0.65;entryX=0.43;entryY=0;" edge="1" parent="2" source="9" target="12">
          <mxGeometry relative="1" as="geometry">
            <Array as="points">
              <mxPoint x="299" y="295" />
              <mxPoint x="337" y="295" />
            </Array>
          </mxGeometry>
        </mxCell>
        <mxCell id="36" value="" style="curved=1;startArrow=none;endArrow=block;exitX=1;exitY=0.3;entryX=0.32;entryY=1;" edge="1" parent="2" source="15" target="12">
          <mxGeometry relative="1" as="geometry">
            <Array as="points">
              <mxPoint x="299" y="725" />
              <mxPoint x="337" y="725" />
            </Array>
          </mxGeometry>
        </mxCell>
        <mxCell id="37" value="" style="curved=1;startArrow=none;endArrow=block;exitX=1;exitY=0.15;entryX=0.42;entryY=1;" edge="1" parent="2" source="18" target="12">
          <mxGeometry relative="1" as="geometry">
            <Array as="points">
              <mxPoint x="299" y="879" />
              <mxPoint x="337" y="879" />
            </Array>
          </mxGeometry>
        </mxCell>
      </root>
    </mxGraphModel>
  </diagram>
</mxfile>
